<svg width="496" height="129" viewBox="0 0 496 129" fill="none" xmlns="http://www.w3.org/2000/svg">
<path d="M482.274 52.1854C489.575 59.4861 491.357 67.1683 487.013 74.9179C482.673 82.6617 472.364 90.1405 456.656 96.8657C425.268 110.304 373.093 120.408 307.484 123.846C241.874 127.285 175.695 123.384 121.894 114.41C94.97 109.919 71.4751 104.212 52.851 97.6714C34.2126 91.1262 21.2176 84.0316 13.9169 76.7309C6.61619 69.4302 4.83448 61.748 9.17784 53.9983C13.5179 46.2545 23.8269 38.7757 39.535 32.0505C70.923 18.6122 123.098 8.50838 188.707 5.06992C254.317 1.63146 320.497 5.53258 374.297 14.5064C401.221 18.9974 424.716 24.7045 443.34 31.2448C461.978 37.7901 474.973 44.8846 482.274 52.1854Z" fill="#2E305B" stroke="url(#paint0_linear_171_20)" stroke-width="10"/>
<defs>
<linearGradient id="paint0_linear_171_20" x1="185.172" y1="1.53439" x2="192.094" y2="133.614" gradientUnits="userSpaceOnUse">
<stop stop-color="#0FF0F0"/>
<stop offset="1" stop-color="#D185FF"/>
</linearGradient>
</defs>
</svg>
